PathFileType	3	(X/Y/Z)	dance_move_1__fused_aligned.trc
DataRate	CameraRate	NumFrames	NumMarkers	Units	OrigDataRate	OrigDataStartFrame	OrigNumFrames
100.0	100.0	18	19	mm	100.0	584	890
Frame#	Time	pelvis			neck			head			hip_left			hip_right			knee_left			knee_right			ankle_left			ankle_right			heel_left			heel_right			toe_left			toe_right			shoulder_left			shoulder_right			elbow_left			elbow_right			wrist_left			wrist_right			
		X1	Y1	Z1	X2	Y2	Z2	X3	Y3	Z3	X4	Y4	Z4	X5	Y5	Z5	X6	Y6	Z6	X7	Y7	Z7	X8	Y8	Z8	X9	Y9	Z9	X10	Y10	Z10	X11	Y11	Z11	X12	Y12	Z12	X13	Y13	Z13	X14	Y14	Z14	X15	Y15	Z15	X16	Y16	Z16	X17	Y17	Z17	X18	Y18	Z18	X19	Y19	Z19	
584	5.83000	118.427797	750.183058	113.292684	100.795923	1229.519225	-185.651408	93.380718	1262.763804	-347.918575	38.106832	749.260279	119.025268	198.749037	751.105830	107.560100	-150.802866	498.532967	-150.451407	307.906511	469.223648	-178.263405	-101.276123	149.038190	22.647773	273.382930	108.279312	-25.469500	-84.081336	108.353629	61.440009	263.503725	67.331137	16.364324	-170.844036	81.014062	-134.122126	295.537768	36.120390	-201.911606	-80.481474	1197.518136	-141.357984	281.022422	1185.972979	-155.139849	-166.775082	923.030943	-140.898051	376.025809	912.318965	-183.584311	-155.413049	687.268080	-236.571762	402.646080	678.164847	-278.132383
585	5.84000	119.320790	750.769719	112.572883	102.550662	1230.584723	-186.280689	95.119392	1263.840340	-348.538400	38.941389	749.936978	118.443207	199.700457	751.602454	106.702569	-152.817007	499.485988	-149.133682	309.259671	468.774530	-177.842921	-101.826289	149.222865	22.018147	274.576949	107.805766	-25.566537	-84.195260	108.412724	60.557456	264.657064	66.854006	16.237363	-172.532421	81.341537	-134.561963	296.586855	35.720291	-202.090314	-78.621584	1199.556702	-141.810513	282.515123	1186.534556	-155.298010	-167.828189	925.563036	-141.057128	379.520185	913.074571	-183.079348	-159.694556	689.166960	-236.703656	410.417352	677.587088	-278.147353
586	5.85000	120.213782	751.356381	111.853083	104.305400	1231.650222	-186.909970	96.858066	1264.916876	-349.158225	39.775946	750.613677	117.861146	200.651877	752.099078	105.845038	-154.831148	500.439009	-147.815957	310.612830	468.325411	-177.422437	-102.376455	149.407539	21.388521	275.770968	107.332220	-25.663575	-84.309183	108.471820	59.674904	265.810402	66.376875	16.110402	-174.220805	81.669011	-135.001801	297.635942	35.320192	-202.269022	-76.761695	1201.595267	-142.263041	284.007823	1187.096133	-155.456172	-168.881295	928.095129	-141.216205	383.014561	913.830177	-182.574385	-163.976063	691.065839	-236.835549	418.188624	677.009330	-278.162323
587	5.86000	121.106774	751.943042	111.133282	106.060139	1232.715720	-187.539251	98.596740	1265.993412	-349.778051	40.610503	751.290376	117.279085	201.603297	752.595702	104.987507	-156.845290	501.392031	-146.498232	311.965990	467.876293	-177.001954	-102.926621	149.592214	20.758895	276.964987	106.858673	-25.760612	-84.423107	108.530915	58.792351	266.963741	65.899744	15.983440	-175.909190	81.996486	-135.441638	298.685029	34.920093	-202.447730	-74.901805	1203.633833	-142.715570	285.500524	1187.657711	-155.614334	-169.934401	930.627222	-141.375282	386.508937	914.585784	-182.069422	-168.257571	692.964718	-236.967443	425.959896	676.431572	-278.177293
588	5.87000	121.999767	752.529703	110.413482	107.814878	1233.781219	-188.168532	100.335413	1267.069949	-350.397876	41.445060	751.967074	116.697024	202.554716	753.092325	104.129976	-158.859431	502.345052	-145.180506	313.319149	467.427175	-176.581470	-103.476786	149.776888	20.129269	278.159006	106.385127	-25.857650	-84.537031	108.590011	57.909798	268.117080	65.422613	15.856479	-177.597575	82.323960	-135.881475	299.734115	34.519994	-202.626439	-73.041915	1205.672399	-143.168098	286.993224	1188.219288	-155.772495	-170.987507	933.159315	-141.534359	390.003313	915.341390	-181.564459	-172.539078	694.863598	-237.099336	433.731168	675.853814	-278.192263
589	5.88000	122.107592	752.714120	110.893654	108.079300	1234.600809	-187.292517	100.396960	1268.045030	-349.581489	41.627095	752.211302	117.453576	202.588308	753.216933	104.333763	-160.101321	502.349365	-143.382276	311.438813	467.202376	-176.278726	-104.658301	149.408668	21.079815	277.949671	106.288387	-25.675509	-85.594772	108.144052	58.781463	268.209150	65.393726	16.078406	-179.314796	82.196795	-134.977262	299.087221	34.184940	-202.417590	-72.807298	1206.671296	-142.064587	287.237747	1188.552929	-154.998185	-170.689274	934.235538	-140.768873	390.215383	915.752324	-180.699134	-173.210621	695.754211	-236.175249	434.608169	675.954038	-277.687101
590	5.89000	122.215418	752.898538	111.373826	108.343721	1235.420399	-186.416501	100.458506	1269.020111	-348.765101	41.809129	752.455530	118.210127	202.621900	753.341541	104.537551	-161.343211	502.353679	-141.584045	309.558477	466.977578	-175.975981	-105.839816	149.040448	22.030361	277.740335	106.191647	-25.493368	-86.652514	107.698094	59.653128	268.301220	65.364839	16.300332	-181.032017	82.069631	-134.073050	298.440327	33.849886	-202.208742	-72.572681	1207.670194	-140.961077	287.482271	1188.886570	-154.223874	-170.391041	935.311761	-140.003387	390.427453	916.163258	-179.833810	-173.882165	696.644824	-235.251161	435.485170	676.054262	-277.181939
591	5.90000	122.323243	753.082956	111.853998	108.608143	1236.239989	-185.540486	100.520052	1269.995191	-347.948714	41.991164	752.699758	118.966679	202.655491	753.466149	104.741339	-162.585101	502.357992	-139.785815	307.678141	466.752779	-175.673236	-107.021331	148.672228	22.980907	277.531000	106.094906	-25.311226	-87.710255	107.252135	60.524794	268.393290	65.335951	16.522259	-182.749238	81.942466	-133.168837	297.793433	33.514832	-201.999894	-72.338064	1208.669091	-139.857566	287.726794	1189.220212	-153.449564	-170.092808	936.387984	-139.237901	390.639523	916.574192	-178.968485	-174.553709	697.535438	-234.327074	436.362170	676.154487	-276.676777
592	5.91000	122.431069	753.267373	112.334170	108.872565	1237.059580	-184.664470	100.581598	1270.970272	-347.132327	42.173199	752.943986	119.723230	202.689083	753.590757	104.945126	-163.826991	502.362306	-137.987584	305.797805	466.527981	-175.370491	-108.202846	148.304008	23.931453	277.321664	105.998166	-25.129085	-88.767996	106.806177	61.396459	268.485360	65.307064	16.744186	-184.466459	81.815301	-132.264624	297.146539	33.179778	-201.791046	-72.103447	1209.667989	-138.754056	287.971317	1189.553853	-152.675253	-169.794575	937.464207	-138.472415	390.851593	916.985126	-178.103160	-175.225252	698.426051	-233.402987	437.239171	676.254711	-276.171615
593	5.92000	122.538894	753.451791	112.814342	109.136987	1237.879170	-183.788455	100.643144	1271.945353	-346.315940	42.355233	753.188214	120.479782	202.722675	753.715365	105.148914	-165.068880	502.366619	-136.189354	303.917469	466.303182	-175.067746	-109.384361	147.935788	24.882000	277.112329	105.901426	-24.946944	-89.825738	106.360218	62.268124	268.577430	65.278176	16.966113	-186.183680	81.688136	-131.360411	296.499645	32.844724	-201.582198	-71.868830	1210.666886	-137.650545	288.215840	1189.887494	-151.900943	-169.496342	938.540430	-137.706929	391.063663	917.396060	-177.237836	-175.896796	699.316664	-232.478899	438.116172	676.354935	-275.666453
594	5.93000	122.646720	753.636208	113.294514	109.401408	1238.698760	-182.912439	100.704690	1272.920434	-345.499552	42.537268	753.432442	121.236334	202.756266	753.839973	105.352701	-166.310770	502.370933	-134.391123	302.037133	466.078383	-174.765002	-110.565876	147.567568	25.832546	276.902993	105.804686	-24.764803	-90.883479	105.914260	63.139789	268.669500	65.249289	17.188039	-187.900901	81.560972	-130.456199	295.852751	32.509670	-201.373350	-71.634212	1211.665783	-136.547035	288.460364	1190.221135	-151.126632	-169.198108	939.616653	-136.941444	391.275732	917.806994	-176.372511	-176.568339	700.207278	-231.554812	438.993172	676.455160	-275.161291
595	5.94000	122.754545	753.820626	113.774686	109.665830	1239.518350	-182.036424	100.766236	1273.895515	-344.683165	42.719302	753.676669	121.992885	202.789858	753.964580	105.556489	-167.552660	502.375246	-132.592892	300.156797	465.853585	-174.462257	-111.747391	147.199348	26.783092	276.693658	105.707946	-24.582662	-91.941220	105.468301	64.011454	268.761570	65.220402	17.409966	-189.618122	81.433807	-129.551986	295.205857	32.174616	-201.164501	-71.399595	1212.664681	-135.443524	288.704887	1190.554776	-150.352322	-168.899875	940.692876	-136.175958	391.487802	918.217928	-175.507187	-177.239883	701.097891	-230.630724	439.870173	676.555384	-274.656129
596	5.95000	122.862371	754.005044	114.254858	109.930252	1240.337940	-181.160408	100.827782	1274.870596	-343.866778	42.901337	753.920897	122.749437	202.823449	754.089188	105.760277	-168.794550	502.379559	-130.794662	298.276461	465.628786	-174.159512	-112.928906	146.831128	27.733638	276.484322	105.611206	-24.400521	-92.998962	105.022343	64.883119	268.853640	65.191514	17.631893	-191.335344	81.306642	-128.647773	294.558963	31.839562	-200.955653	-71.164978	1213.663578	-134.340013	288.949410	1190.888418	-149.578011	-168.601642	941.769099	-135.410472	391.699872	918.628862	-174.641862	-177.911427	701.988504	-229.706637	440.747173	676.655609	-274.150967
597	5.96000	122.970196	754.189461	114.735030	110.194674	1241.157530	-180.284393	100.889328	1275.845677	-343.050391	43.083372	754.165125	123.505988	202.857041	754.213796	105.964064	-170.036440	502.383873	-128.996431	296.396125	465.403988	-173.856767	-114.110421	146.462908	28.684184	276.274986	105.514466	-24.218380	-94.056703	104.576384	65.754785	268.945710	65.162627	17.853819	-193.052565	81.179477	-127.743560	293.912069	31.504508	-200.746805	-70.930361	1214.662476	-133.236503	289.193933	1191.222059	-148.803701	-168.303409	942.845322	-134.644986	391.911942	919.039796	-173.776537	-178.582970	702.879117	-228.782550	441.624174	676.755833	-273.645805
598	5.97000	123.078022	754.373879	115.215202	110.459095	1241.977120	-179.408378	100.950875	1276.820758	-342.234004	43.265406	754.409353	124.262540	202.890633	754.338404	106.167852	-171.278330	502.388186	-127.198201	294.515789	465.179189	-173.554023	-115.291936	146.094688	29.634730	276.065651	105.417726	-24.036239	-95.114445	104.130425	66.626450	269.037780	65.133739	18.075746	-194.769786	81.052312	-126.839347	293.265175	31.169455	-200.537957	-70.695744	1215.661373	-132.132992	289.438456	1191.555700	-148.029390	-168.005176	943.921545	-133.879500	392.124012	919.450730	-172.911213	-179.254514	703.769731	-227.858462	442.501175	676.856057	-273.140643
599	5.98000	122.102551	754.030926	116.073577	109.660639	1241.789130	-177.995397	100.092075	1277.023749	-340.794630	42.439432	754.126220	125.271141	201.765666	753.935633	106.876002	-171.073112	501.748644	-126.737500	290.527559	465.177825	-173.877790	-116.522952	145.669647	30.755919	274.785826	105.702020	-23.541168	-96.610882	103.713800	67.877513	268.242691	65.507160	18.690787	-195.647597	80.855561	-126.007128	291.541424	31.114997	-199.833993	-71.388850	1215.069016	-131.066838	288.575956	1191.296869	-146.797826	-165.725098	943.200359	-133.957962	388.812872	919.107284	-172.868803	-176.333346	702.568641	-227.292251	436.482824	677.017456	-274.200426
600	5.99000	121.127079	753.687974	116.931952	108.862183	1241.601140	-176.582416	99.233276	1277.226741	-339.355256	41.613458	753.843086	126.279742	200.640698	753.532861	107.584153	-170.867895	501.109103	-126.276800	286.539329	465.176461	-174.201556	-117.753968	145.244606	31.877108	273.506000	105.986315	-23.046097	-98.107320	103.297174	69.128577	267.447601	65.880581	19.305827	-196.525409	80.658810	-125.174909	289.817674	31.060539	-199.130030	-72.081956	1214.476658	-130.000685	287.713456	1191.038037	-145.566261	-163.445021	942.479173	-134.036424	385.501732	918.763838	-172.826394	-173.412179	701.367552	-226.726040	430.464474	677.178855	-275.260208
601	6.00000	120.151608	753.345022	117.790327	108.063727	1241.413149	-175.169435	98.374477	1277.429732	-337.915883	40.787483	753.559953	127.288343	199.515731	753.130089	108.292303	-170.662677	500.469561	-125.816099	282.551099	465.175097	-174.525323	-118.984984	144.819564	32.998297	272.226175	106.270609	-22.551026	-99.603758	102.880548	70.379640	266.652511	66.254001	19.920868	-197.403220	80.462059	-124.342689	288.093923	31.006081	-198.426066	-72.775061	1213.884300	-128.934531	286.850956	1190.779206	-144.334696	-161.164943	941.757987	-134.114886	382.190592	918.420392	-172.783984	-170.491011	700.166462	-226.159828	424.446124	677.340254	-276.319991
